<?xml version="1.0" standalone="no"?>
<!DOCTYPE svg PUBLIC "-//W3C//DTD SVG 20010904//EN"
 "http://www.w3.org/TR/2001/REC-SVG-20010904/DTD/svg10.dtd">
<svg version="1.0" xmlns="http://www.w3.org/2000/svg"
 width="512.000000pt" height="512.000000pt" viewBox="0 0 512.000000 512.000000"
 preserveAspectRatio="xMidYMid meet">
<metadata>
Created by potrace 1.14, written by Peter Selinger 2001-2017
</metadata>
<g transform="translate(0.000000,512.000000) scale(0.100000,-0.100000)"
fill="#000000" stroke="none">
<path d="M1730 4632 l-25 -3 1 -712 c1 -392 2 -715 3 -718 0 -3 228 -5 506 -5
l505 0 0 213 0 213 815 0 815 0 0 505 c0 278 -3 505 -7 506 -32 2 -2594 3
-2613 1z"/>
<path d="M70 3848 c-1 -5 -1 -612 -1 -634 1 -19 7 -20 116 -20 l115 0 0 328 0
328 -115 0 c-63 0 -115 -1 -115 -2z"/>
<path d="M414 3523 l1 -328 125 -1 c69 0 127 3 130 7 3 4 5 150 5 326 l-1 318
-130 3 -130 3 0 -328z"/>
<path d="M761 3522 l0 -328 144 0 145 0 0 328 0 328 -145 0 -144 0 0 -328z"/>
<path d="M1146 3528 c1 -178 2 -326 3 -329 0 -3 91 -5 201 -5 l200 0 0 328 0
328 -203 0 -202 0 1 -322z"/>
<path d="M1089 3016 c-3 -221 0 -946 4 -953 3 -4 603 -8 1334 -8 l1328 0 0
507 1 506 -1333 0 -1333 -1 -1 -51z"/>
<path d="M70 1928 c-1 -5 -1 -612 -1 -635 1 -21 5 -21 116 -21 l115 0 0 329 0
329 -115 0 c-63 0 -115 -1 -115 -2z"/>
<path d="M414 1602 l0 -329 127 -1 c89 0 129 3 131 11 2 7 3 154 3 327 l-1
315 -130 3 -130 3 0 -329z"/>
<path d="M761 1601 l0 -329 144 0 145 1 0 328 0 329 -145 0 -144 0 0 -329z"/>
<path d="M1146 1608 c1 -178 2 -326 3 -330 0 -3 91 -6 201 -6 l200 1 0 328 0
329 -203 0 -202 0 1 -322z"/>
<path d="M1706 1218 c1 -392 2 -716 3 -720 0 -5 595 -8 1321 -8 l1320 0 0 508
0 507 -815 -1 -815 -1 0 213 0 214 -508 0 -507 0 1 -712z"/>
</g>
</svg>
