<svg width="14" height="14" viewBox="0 0 14 14" fill="none" xmlns="http://www.w3.org/2000/svg">
<path d="M6.99919 14C5.05528 14 3.40278 13.3194 2.04167 11.9583C0.680556 10.5972 0 8.94444 0 7C0 5.05556 0.680069 3.40278 2.04021 2.04167C3.40035 0.680555 5.05195 -2.38419e-07 6.99502 -2.38419e-07C7.17637 -2.38419e-07 7.35448 0.00694421 7.52935 0.0208331C7.70423 0.034722 7.88194 0.0555553 8.0625 0.0833331C7.52083 0.486111 7.09028 0.986111 6.77083 1.58333C6.45139 2.18056 6.29167 2.81944 6.29167 3.5C6.29167 4.68056 6.69792 5.67708 7.51042 6.48958C8.32292 7.30208 9.31944 7.70833 10.5 7.70833C11.1806 7.70833 11.8194 7.54861 12.4167 7.22917C13.0139 6.90972 13.5139 6.47917 13.9167 5.9375C13.9444 6.11806 13.9653 6.29577 13.9792 6.47065C13.9931 6.64552 14 6.82363 14 7.00498C14 8.94805 13.3192 10.5997 11.9575 11.9598C10.5959 13.3199 8.94308 14 6.99919 14ZM7 12.5C8.13889 12.5 9.17206 12.1731 10.0995 11.5193C11.027 10.8655 11.7091 10.0118 12.1458 8.95833C11.8681 9.02778 11.5926 9.08681 11.3194 9.13542C11.0463 9.18403 10.7732 9.20833 10.5 9.20833C8.91864 9.20833 7.57191 8.65228 6.45981 7.54019C5.34772 6.42809 4.79167 5.08136 4.79167 3.5C4.79167 3.22685 4.81597 2.9537 4.86458 2.68056C4.91319 2.40741 4.97222 2.13194 5.04167 1.85417C3.98815 2.29093 3.1345 2.97304 2.48071 3.9005C1.8269 4.82794 1.5 5.86111 1.5 7C1.5 8.52778 2.03472 9.82639 3.10417 10.8958C4.17361 11.9653 5.47222 12.5 7 12.5Z" fill="#E5E5E5"/>
</svg>
