<svg width="18" height="18" viewBox="0 0 18 18" fill="none" xmlns="http://www.w3.org/2000/svg">
<path d="M9 11.5C9.69444 11.5 10.2847 11.2569 10.7708 10.7708C11.2569 10.2847 11.5 9.69444 11.5 9C11.5 8.30556 11.2569 7.71528 10.7708 7.22917C10.2847 6.74306 9.69444 6.5 9 6.5C8.30556 6.5 7.71528 6.74306 7.22917 7.22917C6.74306 7.71528 6.5 8.30556 6.5 9C6.5 9.69444 6.74306 10.2847 7.22917 10.7708C7.71528 11.2569 8.30556 11.5 9 11.5ZM8.99529 13C7.88732 13 6.94444 12.6095 6.16667 11.8286C5.38889 11.0477 5 10.1033 5 8.99529C5 7.88732 5.39046 6.94444 6.17138 6.16667C6.95229 5.38889 7.89674 5 9.00471 5C10.1127 5 11.0556 5.39046 11.8333 6.17138C12.6111 6.95229 13 7.89674 13 9.00471C13 10.1127 12.6095 11.0556 11.8286 11.8333C11.0477 12.6111 10.1033 13 8.99529 13ZM3.5 9.75H0V8.25H3.5V9.75ZM18 9.75H14.5V8.25H18V9.75ZM8.25 3.5V0H9.75V3.5H8.25ZM8.25 18V14.5H9.75V18H8.25ZM4.60417 5.625L2.45833 3.54167L3.52083 2.39583L5.64583 4.5625L4.60417 5.625ZM14.4792 15.5208L12.375 13.4167L13.3958 12.3542L15.5417 14.4583L14.4792 15.5208ZM12.3333 4.60417L14.4583 2.5L15.5208 3.52083L13.4375 5.66667L12.3333 4.60417ZM2.39583 14.4792L4.58333 12.4167L5.60417 13.3958L3.5625 15.5625L2.39583 14.4792Z" fill="#262626"/>
</svg>
