<svg width="400" height="143" viewBox="0 0 400 143" fill="none" xmlns="http://www.w3.org/2000/svg">
<path d="M317.615 142.773H309.101V133.697V108.254V93.5694H343.617C343.617 97.7504 343.617 102.594 343.617 108.254H398.966V142.773H317.615Z" fill="#2B2A29"/>
<path d="M309.101 50.5355V35.9019V10.408V1.33209H317.615H398.966V35.9019H343.617C343.617 41.7656 343.617 46.5584 343.617 50.5355H309.101Z" fill="#2B2A29"/>
<path d="M21.1051 50.5355V35.9019V10.4589V1.38307H29.5685H110.92V35.9019H55.5702C55.5702 41.8166 55.5702 46.6094 55.5702 50.5355H21.1051Z" fill="#2B2A29"/>
<path d="M29.5685 142.772H21.1051V133.748V108.254V93.6204H55.5702C55.5702 97.8014 55.5702 102.645 55.5702 108.254H110.92V142.772H29.5685Z" fill="#2B2A29"/>
<path d="M186.795 1.38307L169.309 81.1282L154.863 1.38307H116.596L147.565 142.773H191.053L204.738 80.3124L218.424 142.773H261.861L292.83 1.38307H254.612L240.117 81.1282L222.68 1.38307H222.022H187.455H186.795Z" fill="#2B2A29"/>
<rect y="54.3636" width="90.5882" height="35.4545" fill="#EE761C"/>
<rect x="288.235" y="54.3636" width="90.5882" height="35.4545" fill="#EE761C"/>
</svg>
